<?xml version="1.0" encoding="UTF-8" standalone="no"?>
<!-- Generator: Adobe Illustrator 25.4.0, SVG Export Plug-In . SVG Version: 6.00 Build 0)  -->

<svg
   version="1.1"
   id="Layer_2"
   x="0px"
   y="0px"
   viewBox="0 0 124.99992 32.361702"
   xml:space="preserve"
   sodipodi:docname="amazon.svg"
   inkscape:version="1.3.2 (091e20e, 2023-11-25)"
   width="124.99992"
   height="32.361702"
   xmlns:inkscape="http://www.inkscape.org/namespaces/inkscape"
   xmlns:sodipodi="http://sodipodi.sourceforge.net/DTD/sodipodi-0.dtd"
   xmlns:xlink="http://www.w3.org/1999/xlink"
   xmlns="http://www.w3.org/2000/svg"
   xmlns:svg="http://www.w3.org/2000/svg"><defs
   id="defs13"><inkscape:path-effect
   effect="powerclip"
   id="path-effect13"
   is_visible="true"
   lpeversion="1"
   inverse="true"
   flatten="false"
   hide_clip="false"
   message="Use fill-rule evenodd on &lt;b&gt;fill and stroke&lt;/b&gt; dialogue if no flatten result after convert clip to paths." />
	
	

		
		
	<clipPath
   clipPathUnits="userSpaceOnUse"
   id="clipPath13"><path
     id="path13"
     class="st2"
     d="m 20.067923,19.234783 c 0.15768,-0.120581 0.239833,-0.290186 0.239833,-0.518095 0,-0.151056 -0.0477,-0.274284 -0.145755,-0.367038 -0.09805,-0.0954 -0.271637,-0.189482 -0.531346,-0.284886 l -0.796354,-0.300787 c -0.695652,-0.259708 -1.040165,-0.698299 -1.040165,-1.321073 0,-0.408118 0.15768,-0.739379 0.474369,-0.989814 0.316687,-0.253085 0.730101,-0.376313 1.241571,-0.376313 0.408116,0 0.802979,0.07288 1.19122,0.218633 0.07553,0.02518 0.129854,0.05698 0.157682,0.09805 0.0318,0.04108 0.0477,0.100705 0.0477,0.182857 v 0.255734 c 0,0.113955 -0.04108,0.170933 -0.123228,0.170933 -0.04373,0 -0.116606,-0.0159 -0.214657,-0.0477 -0.331263,-0.100704 -0.670475,-0.151055 -1.011015,-0.151055 -0.600246,0 -0.901033,0.205382 -0.901033,0.613498 0,0.164306 0.05035,0.29416 0.151054,0.385589 0.100704,0.0954 0.296812,0.198757 0.590973,0.312712 l 0.730103,0.284887 c 0.369688,0.145754 0.634698,0.316687 0.796354,0.515444 0.161657,0.198757 0.243809,0.454493 0.243809,0.76853 0,0.445217 -0.164307,0.80298 -0.49557,1.06534 -0.331262,0.26236 -0.771181,0.394865 -1.321075,0.394865 -0.549894,0 -0.995112,-0.08878 -1.415152,-0.265009 -0.07553,-0.0318 -0.125879,-0.06625 -0.155031,-0.104679 -0.02783,-0.03843 -0.04108,-0.09805 -0.04108,-0.180208 v -0.265009 c 0,-0.113955 0.03843,-0.170933 0.113955,-0.170933 0.04373,0 0.123228,0.01855 0.233208,0.05698 0.413416,0.132506 0.840082,0.198757 1.28265,0.198757 0.303436,0 0.533994,-0.05963 0.695652,-0.180206 z m -4.150057,-3.83072 c 0,-0.12588 0.0636,-0.189482 0.186832,-0.189482 h 0.552548 c 0.125879,0 0.186832,0.0636 0.186832,0.189482 v 4.405791 c 0,0.12588 -0.0636,0.189482 -0.186832,0.189482 h -0.404143 c -0.0636,0 -0.109977,-0.01325 -0.145754,-0.03843 -0.03445,-0.02518 -0.05698,-0.07288 -0.0689,-0.141781 l -0.06625,-0.328613 c -0.581697,0.43329 -1.179295,0.6506 -1.788818,0.6506 -0.442566,0 -0.783105,-0.125879 -1.020288,-0.376314 -0.237184,-0.253084 -0.357764,-0.606873 -0.357764,-1.06534 v -3.296725 c 0,-0.125879 0.0636,-0.189482 0.186834,-0.189482 h 0.552545 c 0.12588,0 0.186833,0.0636 0.186833,0.189482 v 2.989314 c 0,0.337888 0.06625,0.588321 0.196108,0.748653 0.132504,0.161655 0.341862,0.239834 0.629398,0.239834 0.449192,0 0.903685,-0.151057 1.359502,-0.451844 v -3.527283 h 0.0026 z m -5.028567,4.595273 c -0.125879,0 -0.186832,-0.0636 -0.186832,-0.189482 V 16.75429 c 0,-0.316687 -0.05963,-0.547245 -0.177556,-0.698302 -0.116604,-0.151055 -0.306086,-0.223934 -0.5631466,-0.223934 -0.4544926,0 -0.916934,0.141781 -1.3780527,0.424015 0.00663,0.04373 0.00928,0.09143 0.00928,0.141781 v 3.41333 c 0,0.125879 -0.063602,0.189482 -0.1868324,0.189482 H 7.8536091 c -0.1258798,0 -0.186832,-0.0636 -0.186832,-0.189482 v -3.055565 c 0,-0.316688 -0.059628,-0.547247 -0.177557,-0.698301 C 7.3686409,15.906258 7.1831336,15.83338 6.926074,15.83338 c -0.4743681,0 -0.9328356,0.13913 -1.3687773,0.413416 v 3.564384 c 0,0.125879 -0.063602,0.189484 -0.186832,0.189484 h -0.552546 c -0.1258802,0 -0.1868324,-0.0636 -0.1868324,-0.189484 v -4.405791 c 0,-0.12588 0.063602,-0.189482 0.1868324,-0.189482 h 0.4107652 c 0.063602,0 0.1099796,0.01325 0.1457553,0.03843 0.034451,0.02518 0.056977,0.07288 0.068903,0.14178 l 0.056977,0.300786 c 0.6002479,-0.413416 1.1845946,-0.622773 1.7543669,-0.622773 0.5697723,0 0.9739118,0.223934 1.1819444,0.670475 0.6187983,-0.445216 1.2362719,-0.670475 1.8550695,-0.670475 0.429317,0 0.761904,0.12323 0.992463,0.367039 0.230558,0.246459 0.347164,0.593623 0.347164,1.045464 v 3.324551 c 0,0.125879 -0.0636,0.189484 -0.186833,0.189484 h -0.559171 z m 14.413897,3.545836 c 0.43594,-0.186833 0.799004,0.287534 0.372337,0.606872 -2.575897,1.909399 -6.304588,2.927037 -9.519159,2.927037 -4.503846,0 -8.5611496,-1.674864 -11.6299648,-4.46542 -0.1921325,-0.17358 -0.095404,-0.398838 0.098054,-0.398838 0.050352,0 0.1073289,0.0159 0.1669559,0.05035 3.30865,1.939873 7.4043799,3.105917 11.6326149,3.105917 2.854158,0 5.989227,-0.593622 8.877836,-1.827242 z m -0.09805,-7.265251 c -0.23056,0.268985 -0.347162,0.691677 -0.347162,1.279998 v 0.12323 c 0,0.572422 0.116604,0.992463 0.351137,1.257473 0.233208,0.268984 0.604223,0.40149 1.109066,0.40149 0.26236,0 0.543272,-0.04373 0.844057,-0.132506 0.0689,-0.01855 0.116604,-0.02782 0.13913,-0.02782 0.08215,0 0.12058,0.0636 0.12058,0.189482 v 0.255735 c 0,0.08215 -0.01325,0.141779 -0.03843,0.180206 -0.02518,0.03843 -0.07553,0.07288 -0.148405,0.104679 -0.306086,0.132506 -0.663849,0.198758 -1.067991,0.198758 -0.736727,0 -1.302525,-0.212008 -1.690762,-0.634699 -0.392216,-0.424015 -0.584349,-1.040165 -0.584349,-1.845795 0,-0.805632 0.202732,-1.415153 0.604224,-1.855071 0.40414,-0.435942 0.973911,-0.654574 1.709314,-0.654574 0.337887,0 0.670475,0.05963 0.992462,0.180206 0.0689,0.02518 0.116606,0.05698 0.145756,0.0954 0.02783,0.03843 0.04108,0.100704 0.04108,0.189482 v 0.255735 c 0,0.125879 -0.04108,0.189481 -0.123228,0.189481 -0.0318,0 -0.08215,-0.0093 -0.148406,-0.02782 -0.255733,-0.07553 -0.515443,-0.113956 -0.777803,-0.113956 -0.518095,-0.0093 -0.89706,0.123229 -1.127617,0.392215 z m 1.184595,9.745744 c -0.212009,0.180207 -0.413416,0.08215 -0.319338,-0.151056 0.310061,-0.780453 1.008364,-2.528194 0.675776,-2.954861 -0.328611,-0.424017 -2.177057,-0.202734 -3.005215,-0.100704 -0.253084,0.0318 -0.290186,-0.189482 -0.0636,-0.351137 0.761904,-0.536646 1.772917,-0.716852 2.612999,-0.716852 0.787079,0 1.419128,0.15768 1.554283,0.325962 0.28091,0.351139 -0.07553,2.787906 -1.456232,3.949974 z M 22.723322,15.217231 c 0.125879,0 0.186832,0.0636 0.186832,0.189482 v 4.401818 c 0,0.125879 -0.0636,0.189482 -0.186832,0.189482 h -0.552546 c -0.125879,0 -0.186832,-0.0636 -0.186832,-0.189482 v -4.405792 c 0,-0.12588 0.0636,-0.189483 0.186832,-0.189483 h 0.552546 v 0.0027 z m 0.155031,-1.827244 c 0.104677,0.104679 0.155031,0.239834 0.155031,0.410766 0,0.17093 -0.05035,0.306085 -0.155031,0.410764 -0.104679,0.104679 -0.24646,0.155031 -0.426666,0.155031 -0.180207,0 -0.321987,-0.05035 -0.426667,-0.155031 -0.104681,-0.104679 -0.155031,-0.239834 -0.155031,-0.410764 0,-0.170932 0.05035,-0.306087 0.155031,-0.410766 0.104678,-0.104679 0.24646,-0.155031 0.426667,-0.155031 0.180206,0 0.325964,0.05035 0.426666,0.155031 z"
     style="display:none" /><path
     id="lpe_path-effect13"
     class="powerclip"
     d="M -4.9999618,-1.18085 H 37.361737 V 41.180851 H -4.9999618 Z m 25.0678848,20.415633 -0.0013,4e-6 c -0.161658,0.120576 -0.392216,0.180206 -0.695652,0.180206 -0.442568,0 -0.869234,-0.06625 -1.28265,-0.198757 -0.10998,-0.03843 -0.189478,-0.05698 -0.233208,-0.05698 -0.07552,0 -0.113955,0.05698 -0.113955,0.170933 v 0.265009 c 0,0.08216 0.01325,0.141778 0.04108,0.180208 0.02915,0.03843 0.0795,0.07288 0.155031,0.104679 0.42004,0.176229 0.865258,0.265009 1.415152,0.265009 0.549894,0 0.989813,-0.132505 1.321075,-0.394865 0.331263,-0.26236 0.49557,-0.620123 0.49557,-1.06534 0,-0.314037 -0.08215,-0.569773 -0.243809,-0.76853 -0.161656,-0.198757 -0.426666,-0.36969 -0.796354,-0.515444 L 19.3988,17.116028 c -0.294161,-0.113955 -0.490269,-0.217312 -0.590973,-0.312712 -0.100704,-0.09143 -0.151054,-0.221283 -0.151054,-0.385589 0,-0.408116 0.300787,-0.613498 0.901033,-0.613498 0.34054,0 0.679752,0.05035 1.011015,0.151055 0.09805,0.0318 0.170927,0.0477 0.214657,0.0477 0.08215,0 0.123228,-0.05698 0.123228,-0.170933 v -0.255734 c 0,-0.08215 -0.0159,-0.141777 -0.0477,-0.182857 -0.02783,-0.04107 -0.08215,-0.07287 -0.157682,-0.09805 -0.388241,-0.145753 -0.783104,-0.218633 -1.19122,-0.218633 -0.51147,0 -0.924884,0.123228 -1.241571,0.376313 -0.316689,0.250435 -0.474369,0.581696 -0.474369,0.989814 0,0.622774 0.344513,1.061365 1.040165,1.321073 l 0.796354,0.300787 c 0.259709,0.0954 0.433296,0.189486 0.531346,0.284886 0.09805,0.09275 0.145755,0.215982 0.145755,0.367038 0,0.227909 -0.08215,0.397514 -0.239833,0.518095 z m -4.150057,-3.83072 0.0013,-0.0027 h -0.0026 v 3.527283 c -0.455817,0.300787 -0.91031,0.451844 -1.359502,0.451844 -0.287536,0 -0.496894,-0.07818 -0.629398,-0.239834 -0.129858,-0.160332 -0.196108,-0.410765 -0.196108,-0.748653 v -2.989314 c 0,-0.125882 -0.06095,-0.189482 -0.186833,-0.189482 H 12.99218 c -0.123234,0 -0.186834,0.0636 -0.186834,0.189482 v 3.296725 c 0,0.458467 0.12058,0.812256 0.357764,1.06534 0.237183,0.250435 0.577722,0.376314 1.020288,0.376314 0.609523,0 1.207121,-0.21731 1.788818,-0.6506 l 0.06625,0.328613 c 0.01192,0.0689 0.03445,0.116601 0.0689,0.141781 0.03578,0.02518 0.08215,0.03843 0.145754,0.03843 h 0.404143 c 0.123232,0 0.186832,-0.0636 0.186832,-0.189482 v -4.405791 c 0,-0.125882 -0.06095,-0.189482 -0.186832,-0.189482 h -0.552548 c -0.123232,0 -0.186832,0.0636 -0.186832,0.189482 z m -5.028567,4.595273 -0.004,0.0013 h 0.559171 c 0.123233,0 0.186833,-0.06361 0.186833,-0.189484 v -3.324551 c 0,-0.451841 -0.116606,-0.799005 -0.347164,-1.045464 C 11.053604,15.19736 10.721017,15.07413 10.2917,15.07413 c -0.6187976,0 -1.2362712,0.225259 -1.8550695,0.670475 C 8.2285979,15.298064 7.8244584,15.07413 7.2546861,15.07413 c -0.5697723,0 -1.154119,0.209357 -1.7543669,0.622773 l -0.056977,-0.300786 c -0.011926,-0.0689 -0.034452,-0.1166 -0.068903,-0.14178 -0.035776,-0.02518 -0.082153,-0.03843 -0.1457553,-0.03843 H 4.8179187 c -0.1232304,0 -0.1868324,0.0636 -0.1868324,0.189482 v 4.405791 c 0,0.125884 0.060952,0.189484 0.1868324,0.189484 h 0.552546 c 0.12323,0 0.186832,-0.0636 0.186832,-0.189484 V 16.246796 C 5.9932384,15.97251 6.4517059,15.83338 6.926074,15.83338 c 0.2570596,0 0.4425669,0.07288 0.5631461,0.223934 0.117929,0.151054 0.177557,0.381613 0.177557,0.698301 v 3.055565 c 0,0.125882 0.060952,0.189482 0.186832,0.189482 h 0.5525502 c 0.1232304,0 0.1868324,-0.0636 0.1868324,-0.189482 v -3.41333 c 0,-0.05035 -0.00265,-0.09805 -0.00928,-0.141781 0.4611187,-0.282234 0.9235601,-0.424015 1.3780527,-0.424015 0.2570606,0 0.4465426,0.07288 0.5631466,0.223934 0.117926,0.151057 0.177556,0.381615 0.177556,0.698302 v 3.055564 c 0,0.125882 0.06095,0.189482 0.186832,0.189482 z m 14.413897,3.545836 -0.0013,-0.0013 c -2.888609,1.23362 -6.023678,1.827242 -8.877836,1.827242 -4.228235,0 -8.3239649,-1.166044 -11.6326149,-3.105917 -0.059627,-0.03445 -0.1166039,-0.05035 -0.1669559,-0.05035 -0.193458,0 -0.2901865,0.225258 -0.098054,0.398838 3.0688152,2.790556 7.1261188,4.46542 11.6299648,4.46542 3.214571,0 6.943262,-1.017638 9.519159,-2.927037 0.426667,-0.319338 0.0636,-0.793705 -0.372337,-0.606872 z m -0.09805,-7.265251 0.0027,0.0013 c 0.230557,-0.268986 0.609522,-0.401515 1.127617,-0.392215 0.26236,0 0.52207,0.03843 0.777803,0.113956 0.06626,0.01852 0.116606,0.02782 0.148406,0.02782 0.08215,0 0.123228,-0.0636 0.123228,-0.189481 v -0.255735 c 0,-0.08878 -0.01325,-0.151052 -0.04108,-0.189482 -0.02915,-0.03842 -0.07686,-0.07022 -0.145756,-0.0954 -0.321987,-0.120576 -0.654575,-0.180206 -0.992462,-0.180206 -0.735403,0 -1.305174,0.218632 -1.709314,0.654574 -0.401492,0.439918 -0.604224,1.049439 -0.604224,1.855071 0,0.80563 0.192133,1.42178 0.584349,1.845795 0.388237,0.422691 0.954035,0.634699 1.690762,0.634699 0.404142,0 0.761905,-0.06625 1.067991,-0.198758 0.07287,-0.0318 0.123225,-0.06625 0.148405,-0.104679 0.02518,-0.03843 0.03843,-0.09806 0.03843,-0.180206 v -0.255735 c 0,-0.125882 -0.03843,-0.189482 -0.12058,-0.189482 -0.02253,0 -0.07023,0.0093 -0.13913,0.02782 -0.300785,0.08878 -0.581697,0.132506 -0.844057,0.132506 -0.504843,0 -0.875858,-0.132506 -1.109066,-0.40149 -0.234533,-0.26501 -0.351137,-0.685051 -0.351137,-1.257473 v -0.12323 c 0,-0.588321 0.116602,-1.011013 0.347162,-1.279998 z m 1.184595,9.745744 -0.0013,0.0013 c 1.380702,-1.162068 1.737142,-3.598835 1.456232,-3.949974 -0.135155,-0.168282 -0.767204,-0.325962 -1.554283,-0.325962 -0.840082,0 -1.851095,0.180206 -2.612999,0.716852 -0.226586,0.161655 -0.189484,0.382937 0.0636,0.351137 0.828158,-0.10203 2.676604,-0.323313 3.005215,0.100704 0.332588,0.426667 -0.365715,2.174408 -0.675776,2.954861 -0.09408,0.233206 0.107329,0.331263 0.319338,0.151056 z M 22.723322,15.217231 v -0.0013 -0.0027 h -0.552546 c -0.123232,0 -0.186832,0.0636 -0.186832,0.189483 v 4.405792 c 0,0.125882 0.06095,0.189482 0.186832,0.189482 h 0.552546 c 0.123232,0 0.186832,-0.0636 0.186832,-0.189482 v -4.401818 c 0,-0.125882 -0.06095,-0.189482 -0.186832,-0.189482 z m 0.155031,-1.827244 c -0.100702,-0.104681 -0.24646,-0.155031 -0.426666,-0.155031 -0.180207,0 -0.321989,0.05035 -0.426667,0.155031 -0.104681,0.104679 -0.155031,0.239834 -0.155031,0.410766 0,0.17093 0.05035,0.306085 0.155031,0.410764 0.10468,0.104681 0.24646,0.155031 0.426667,0.155031 0.180206,0 0.321987,-0.05035 0.426666,-0.155031 0.104681,-0.104679 0.155031,-0.239834 0.155031,-0.410764 0,-0.170932 -0.05035,-0.306087 -0.155031,-0.410766 z" /></clipPath></defs><sodipodi:namedview
   id="namedview13"
   pagecolor="#ffffff"
   bordercolor="#000000"
   borderopacity="0.25"
   inkscape:showpageshadow="2"
   inkscape:pageopacity="0.0"
   inkscape:pagecheckerboard="0"
   inkscape:deskcolor="#d1d1d1"
   inkscape:zoom="5.336"
   inkscape:cx="57.158921"
   inkscape:cy="11.431784"
   inkscape:window-width="1312"
   inkscape:window-height="645"
   inkscape:window-x="0"
   inkscape:window-y="25"
   inkscape:window-maximized="0"
   inkscape:current-layer="Layer_2" />
<style
   type="text/css"
   id="style1">
	.st0{fill-rule:evenodd;clip-rule:evenodd;fill:#25D1DA;}
	.st1{opacity:0.5;}
	.st2{fill-rule:evenodd;clip-rule:evenodd;fill:#15191A;}
	.st3{fill:none;}
</style>
<g
   id="App-icon---App-Store-1024px"
   clip-path="url(#clipPath13)"
   inkscape:path-effect="#path-effect13"
   style="fill:#ffffff"
   transform="translate(-3.82e-5,-3.81915)">
			<path
   id="base-rounded"
   class="st0"
   d="M 7.1738596,3.81915 H 25.187917 c 3.963226,0 7.17382,3.2105966 7.17382,7.173821 v 18.014058 c 0,3.963224 -3.210594,7.173822 -7.17382,7.173822 H 7.1738596 c -3.9632249,0 -7.1738214,-3.210598 -7.1738214,-7.173822 V 10.992971 C 3.81e-5,7.0297465 3.2106347,3.81915 7.1738596,3.81915 Z"
   inkscape:original-d="M 7.1738596,3.81915 H 25.187917 c 3.963226,0 7.17382,3.2105966 7.17382,7.173821 v 18.014058 c 0,3.963224 -3.210594,7.173822 -7.17382,7.173822 H 7.1738596 c -3.9632249,0 -7.1738214,-3.210598 -7.1738214,-7.173822 V 10.992971 C 3.81e-5,7.0297465 3.2106347,3.81915 7.1738596,3.81915 Z"
   style="fill:#ffffff" />
			<g
   id="base-rounded-2"
   class="st1"
   style="fill:#ffffff">
				<g
   id="g1"
   style="fill:#ffffff">
					<defs
   id="defs1">
						<path
   id="SVGID_1_"
   d="M 7.1738596,3.81915 H 25.187917 c 3.961992,0 7.17382,3.2118292 7.17382,7.173821 v 18.014058 c 0,3.961992 -3.211828,7.173822 -7.17382,7.173822 H 7.1738596 c -3.9619925,0 -7.1738214,-3.21183 -7.1738214,-7.173822 V 10.992971 C 3.81e-5,7.0309792 3.2118671,3.81915 7.1738596,3.81915 Z" />
					</defs>
					<clipPath
   id="SVGID_00000090288105296734159920000003438842450320925861_">
						<use
   xlink:href="#SVGID_1_"
   style="overflow:visible"
   id="use1" />
					</clipPath>
				</g>
			</g>
		</g><g
   id="g12"
   style="fill:#ffffff"
   transform="translate(-3.82e-5,-3.81915)">
		<path
   d="m 40.349144,16.033462 h 2.252583 l 3.052917,8.68438 h -2.228733 l -0.48497,-1.526459 h -2.895237 l -0.471718,1.526459 h -2.228733 z m 2.010101,5.366454 -0.895736,-2.822359 -0.87188,2.822359 h 1.768944 z"
   id="path2"
   style="fill:#ffffff" />
		<path
   d="m 46.103836,17.692425 h 1.853741 l 0.193458,1.102442 c 0.36306,-0.76323 1.065342,-1.248198 2.059128,-1.248198 1.078594,0 1.757019,0.459793 2.071057,1.283974 0.36306,-0.787079 1.07859,-1.283974 2.108154,-1.283974 1.550308,0 2.349315,0.968613 2.349315,2.664675 v 4.506496 h -2.204887 v -3.851921 c 0,-0.848032 -0.218632,-1.417803 -0.993786,-1.417803 -0.775154,0 -1.005714,0.581698 -1.005714,1.441656 v 3.82807 h -2.20488 V 20.84207 c 0,-0.799006 -0.193459,-1.392628 -0.968613,-1.392628 -0.775154,0 -1.041488,0.617473 -1.041488,1.55031 v 3.71809 h -2.216809 v -7.025417 z"
   id="path3"
   style="fill:#ffffff" />
		<path
   d="m 57.478065,23.009851 c 0,-0.84803 0.351136,-1.392625 0.92091,-1.743766 0.557846,-0.351138 1.065342,-0.447867 2.204884,-0.629399 1.065342,-0.145755 1.502605,-0.266334 1.502605,-0.714201 0,-0.400165 -0.242481,-0.678426 -0.993789,-0.678426 -0.751305,0 -1.150143,0.363064 -1.175316,1.017639 h -2.240662 c 0.108654,-1.635113 1.223023,-2.713703 3.415978,-2.713703 2.325462,0 3.161571,1.06534 3.161571,2.688526 v 4.481321 h -1.816639 l -0.254413,-1.163395 c -0.400162,0.775156 -1.150143,1.344925 -2.459294,1.344925 -1.526455,0 -2.264511,-0.726126 -2.264511,-1.88952 h -0.0013 z m 4.639,-1.114366 v -0.424017 c -0.205379,0.157682 -0.532669,0.25441 -0.944759,0.327288 -0.605549,0.108655 -0.836105,0.169607 -1.053417,0.315362 -0.193455,0.145756 -0.290188,0.315363 -0.290188,0.557848 0,0.412091 0.278263,0.617474 0.810932,0.617474 0.883808,0 1.477429,-0.702278 1.477429,-1.392628 z"
   id="path4"
   style="fill:#ffffff" />
		<path
   d="m 65.0494,23.070803 3.512711,-3.561733 h -3.319252 v -1.816645 h 6.031631 v 1.743767 l -3.355026,3.427904 h 3.378876 v 1.853746 h -6.25026 v -1.647037 z"
   id="path5"
   style="fill:#ffffff" />
		<path
   d="m 71.76078,21.374741 v -0.218632 c 0,-2.386416 1.477433,-3.609438 3.549805,-3.609438 2.072372,0 3.53656,1.260124 3.53656,3.609438 v 0.218632 c 0,2.337389 -1.404549,3.524633 -3.549805,3.524633 -2.277763,0 -3.53656,-1.187244 -3.53656,-3.524633 z m 4.89341,-0.02385 v -0.193459 c 0,-1.150144 -0.484962,-1.743766 -1.333,-1.743766 -0.848038,0 -1.368775,0.569772 -1.368775,1.743766 v 0.193459 c 0,1.07859 0.544594,1.647038 1.35685,1.647038 0.812256,0 1.344925,-0.544596 1.344925,-1.647036 z"
   id="path6"
   style="fill:#ffffff" />
		<path
   d="m 79.730957,17.692425 h 1.877594 l 0.205376,1.199171 c 0.363067,-0.824181 1.090515,-1.344927 2.181038,-1.344927 1.562233,0 2.386413,1.005714 2.386413,2.701777 v 4.469394 h -2.228729 v -3.839996 c 0,-0.871881 -0.218643,-1.429728 -1.029571,-1.429728 -0.810929,0 -1.150139,0.629399 -1.150139,1.599335 v 3.670389 h -2.240662 v -7.025417 z"
   id="path7"
   style="fill:#ffffff" />
		<path
   d="m 90.899803,16.033462 h 2.010101 l 2.120079,3.027741 2.12008,-3.015816 h 1.986251 v 8.672455 h -2.120079 v -5.28165 l -1.877594,2.640825 h -0.278259 l -1.84182,-2.616974 v 5.256473 h -2.120079 v -8.684377 z"
   id="path8"
   style="fill:#ffffff" />
		<path
   d="m 100.2149,22.161819 v -4.469394 h 2.20489 v 3.816145 c 0,0.859958 0.19346,1.429727 0.98055,1.429727 0.78708,0 1.06533,-0.641323 1.06533,-1.586084 v -3.658464 h 2.24066 v 7.025417 h -1.86568 l -0.20537,-1.187247 c -0.35115,0.810931 -1.04149,1.319752 -2.09491,1.319752 -1.56223,0 -2.32547,-0.981863 -2.32547,-2.688526 v -0.0013 z"
   id="path9"
   style="fill:#ffffff" />
		<path
   d="m 107.28935,22.368528 h 2.27777 c 0.14575,0.593623 0.58169,0.859959 1.29589,0.859959 0.71421,0 0.99379,-0.23056 0.99379,-0.617474 0,-0.48497 -0.76323,-0.544595 -1.63511,-0.654575 -1.2111,-0.157682 -2.64083,-0.424017 -2.64083,-2.094904 0,-1.368778 1.0786,-2.325464 3.06485,-2.325464 2.10815,0 3.05291,0.944761 3.27022,2.349314 h -2.16778 c -0.0967,-0.484969 -0.45979,-0.751303 -1.12629,-0.751303 -0.66651,0 -0.92092,0.254408 -0.92092,0.593622 0,0.435942 0.59362,0.50882 1.63512,0.641325 1.2111,0.157681 2.66467,0.459793 2.66467,2.094904 0,1.404554 -1.06534,2.434116 -3.24637,2.434116 -2.18103,0 -3.23444,-0.908985 -3.46501,-2.532171 z"
   id="path10"
   style="fill:#ffffff" />
		<path
   d="m 114.59435,16.201744 c 0,-0.824181 0.43595,-1.102442 1.31976,-1.102442 0.88381,0 1.31975,0.278261 1.31975,1.102442 0,0.824181 -0.42402,1.090515 -1.31975,1.090515 -0.96861,0 -1.31976,-0.266334 -1.31976,-1.090515 z m 0.16961,1.538384 c 0.25441,0.0848 0.6294,0.133829 1.15015,0.133829 0.52074,0 0.87189,-0.06095 1.13822,-0.145754 v 6.989639 h -2.28969 v -6.976391 z"
   id="path11"
   style="fill:#ffffff" />
		<path
   d="m 117.92552,21.374741 v -0.218632 c 0,-2.386416 1.48936,-3.609438 3.54981,-3.609438 2.06045,0 3.42791,0.968613 3.51271,3.112543 v 0.03578 h -2.28969 v -0.04903 c -0.0729,-0.859959 -0.48496,-1.234948 -1.2111,-1.234948 -0.81093,0 -1.31975,0.569773 -1.31975,1.743765 v 0.193459 c 0,1.07859 0.50882,1.647039 1.30783,1.647039 0.72612,0 1.1634,-0.400167 1.23494,-1.283975 v -0.02385 h 2.28969 v 0.06095 c -0.0848,2.204884 -1.48935,3.088692 -3.53656,3.088692 -2.26451,0 -3.53656,-1.126293 -3.53656,-3.46368 z"
   id="path12"
   style="fill:#ffffff" />
	</g>
<rect
   class="st3"
   width="125"
   height="40"
   id="rect13"
   x="-3.82e-05"
   y="-3.81915" />
</svg>
