<?xml version="1.0" encoding="UTF-8" standalone="no"?>
<svg
   width="124.4"
   height="33.990234"
   viewBox="0 0 124.4 33.990234"
   fill="none"
   version="1.1"
   id="svg13"
   sodipodi:docname="apple.svg"
   inkscape:version="1.3.2 (091e20e, 2023-11-25)"
   xmlns:inkscape="http://www.inkscape.org/namespaces/inkscape"
   xmlns:sodipodi="http://sodipodi.sourceforge.net/DTD/sodipodi-0.dtd"
   xmlns="http://www.w3.org/2000/svg"
   xmlns:svg="http://www.w3.org/2000/svg">
  <sodipodi:namedview
     id="namedview13"
     pagecolor="#ffffff"
     bordercolor="#000000"
     borderopacity="0.25"
     inkscape:showpageshadow="2"
     inkscape:pageopacity="0.0"
     inkscape:pagecheckerboard="true"
     inkscape:deskcolor="#d1d1d1"
     inkscape:zoom="4.588608"
     inkscape:cx="66.904822"
     inkscape:cy="15.255171"
     inkscape:window-width="1312"
     inkscape:window-height="683"
     inkscape:window-x="0"
     inkscape:window-y="25"
     inkscape:window-maximized="0"
     inkscape:current-layer="svg13" />
  <path
     d="M 44.7757,19.1733 H 40.3864 L 39.333,22.2857 H 37.4736 L 41.632,10.77 h 1.9311 l 4.1584,11.5157 H 45.83 Z m -3.9349,-1.4361 h 3.4795 l -1.7158,-5.0517 h -0.0479 z"
     fill="black"
     id="path1"
     style="fill:#ffffff" />
  <path
     d="m 56.6905,18.0887 c 0,2.6101 -1.3965,4.2863 -3.5033,4.2863 -1.0893,0.057 -2.1151,-0.5134 -2.6413,-1.4683 h -0.0396 v 4.1575 H 48.7822 V 13.8908 h 1.668 v 1.3974 h 0.0322 c 0.5492,-0.9503 1.5769,-1.5207 2.6735,-1.4848 2.1307,0 3.5346,1.6836 3.5346,4.2853 z m -1.771,0 c 0,-1.6992 -0.8776,-2.817 -2.219,-2.817 -1.3165,0 -2.2025,1.1408 -2.2025,2.817 0,1.6919 0.886,2.8253 2.2025,2.8253 1.3404,0 2.219,-1.1095 2.219,-2.8253 z"
     fill="black"
     id="path2"
     style="fill:#ffffff" />
  <path
     d="m 65.9249,18.0887 c 0,2.6101 -1.3965,4.2863 -3.5033,4.2863 -1.0893,0.057 -2.1151,-0.5134 -2.6414,-1.4683 h -0.0395 v 4.1575 H 58.0166 V 13.8908 h 1.668 v 1.3974 h 0.0322 c 0.5492,-0.9503 1.5768,-1.5207 2.6735,-1.4848 2.1298,0 3.5346,1.6836 3.5346,4.2853 z m -1.7719,0 c 0,-1.6992 -0.8777,-2.817 -2.219,-2.817 -1.3166,0 -2.2025,1.1408 -2.2025,2.817 0,1.6919 0.8859,2.8253 2.2025,2.8253 1.3413,0 2.219,-1.1095 2.219,-2.8253 z"
     fill="black"
     id="path3"
     style="fill:#ffffff" />
  <path
     d="m 67.3135,10.77 h 1.7231 v 11.5166 h -1.7231 z"
     fill="black"
     id="path4"
     style="fill:#ffffff" />
  <path
     d="m 78.008,19.821 c -0.392,1.6412 -1.9366,2.7388 -3.6156,2.5695 -2.4417,0 -3.9588,-1.6367 -3.9588,-4.2614 0,-2.634 1.5244,-4.3415 3.887,-4.3415 2.3221,0 3.783,1.5962 3.783,4.1418 v 0.5907 h -5.9294 v 0.1039 c -0.0552,0.6247 0.1601,1.2439 0.5925,1.6993 0.4324,0.4554 1.0387,0.7029 1.6661,0.6789 0.8363,0.0782 1.6248,-0.402 1.9394,-1.1812 z m -5.8264,-2.5061 h 4.198 c 0.0312,-0.5621 -0.173,-1.1114 -0.564,-1.5153 -0.391,-0.4048 -0.9329,-0.6274 -1.495,-0.6154 -0.5667,-0.0037 -1.1123,0.2198 -1.5134,0.62 -0.402,0.3993 -0.6265,0.943 -0.6256,1.5107 z"
     fill="black"
     id="path5"
     style="fill:#ffffff" />
  <path
     d="m 92.9721,22.2866 v -8.476 H 92.916 l -3.4721,8.3886 h -1.3248 l -3.4794,-8.3886 h -0.0552 v 8.476 H 82.9561 V 10.77 h 2.0663 l 3.7278,9.0896 h 0.0644 L 92.5333,10.77 h 2.0755 v 11.5166 z"
     fill="black"
     id="path6"
     style="fill:#ffffff" />
  <path
     d="m 103.787,22.2865 h -1.651 v -1.4444 h -0.041 c -0.454,1.012 -1.495,1.6284 -2.6013,1.5401 -0.8234,0.0479 -1.6257,-0.2695 -2.1933,-0.8685 -0.5676,-0.5989 -0.8427,-1.4168 -0.7507,-2.2356 v -5.3875 h 1.7241 v 5.0527 c 0,1.2769 0.6062,1.955 1.7952,1.955 0.565,0.0184 1.112,-0.2107 1.496,-0.6275 0.383,-0.4167 0.565,-0.9807 0.499,-1.5428 v -4.8365 h 1.724 z"
     fill="black"
     id="path7"
     style="fill:#ffffff" />
  <path
     d="m 108.689,13.7949 c 1.859,0 3.192,1.0304 3.232,2.5144 h -1.619 c -0.073,-0.7425 -0.702,-1.1969 -1.66,-1.1969 -0.935,0 -1.557,0.4305 -1.557,1.0856 0,0.5023 0.415,0.8372 1.286,1.0534 l 1.412,0.3266 c 1.692,0.4075 2.33,1.0304 2.33,2.2595 0,1.5161 -1.436,2.5539 -3.487,2.5539 -1.979,0 -3.313,-1.0138 -3.439,-2.5466 h 1.707 c 0.121,0.8069 0.766,1.2374 1.812,1.2374 1.029,0 1.677,-0.4232 1.677,-1.0938 0,-0.518 -0.32,-0.7977 -1.197,-1.0212 l -1.501,-0.3671 c -1.516,-0.3671 -2.282,-1.1408 -2.282,-2.3055 -0.002,-1.4858 1.33,-2.4997 3.286,-2.4997 z"
     fill="black"
     id="path8"
     style="fill:#ffffff" />
  <path
     d="m 113.455,11.68 c -0.008,-0.4076 0.231,-0.7793 0.606,-0.9403 0.374,-0.161 0.808,-0.08 1.098,0.2061 0.291,0.2861 0.379,0.7185 0.224,1.0957 -0.156,0.3763 -0.524,0.6219 -0.93,0.6201 -0.547,0.0037 -0.992,-0.4352 -0.998,-0.9816 z m 0.136,2.2107 h 1.724 v 8.3959 h -1.724 z"
     fill="black"
     id="path9"
     style="fill:#ffffff" />
  <path
     d="m 122.74,16.7795 c -0.156,-0.9522 -1.017,-1.6256 -1.979,-1.5483 -1.324,0 -2.202,1.1095 -2.202,2.8575 0,1.7875 0.885,2.8658 2.219,2.8658 0.95,0.0947 1.811,-0.5667 1.963,-1.5088 h 1.659 c -0.214,1.8059 -1.829,3.1114 -3.639,2.9458 -2.394,0 -3.959,-1.6367 -3.959,-4.3019 0,-2.6091 1.564,-4.301 3.942,-4.301 1.823,-0.1546 3.438,1.173 3.639,2.9918 z"
     fill="black"
     id="path10"
     style="fill:#ffffff" />
  <path
     id="path11"
     d="M 9.4160156,0 C 9.076016,0 8.736484,3.25e-4 8.3964844,0.015625 7.6462951,0.025045 6.8984924,0.0910307 6.1582031,0.2128906 5.4199239,0.3388305 4.7033056,0.5737497 4.0351562,0.9121094 2.6910576,1.5971087 1.5978387,2.6894745 0.91210938,4.0332031 0.57455371,4.7021325 0.34047762,5.4195339 0.21484375,6.1582031 0.09324087,6.8968124 0.02725611,7.642126 0.01757813,8.390625 0.00737814,8.730625 0.00365312,9.07211 0.00195313,9.412109 8.1979313e-4,9.823509 0,10.229313 0,10.632812 v 12.728516 1.21875 c 0,0.34 3.250153e-4,0.679532 0.015625,1.019531 0.009601,0.7485 0.07558625,1.495776 0.19726562,2.234375 0.12563388,0.7387 0.36166309,1.454148 0.69921876,2.123047 0.68572932,1.343699 1.77699512,2.436095 3.12109372,3.121094 0.6685694,0.3373 1.3850376,0.574172 2.1230469,0.701172 0.7385393,0.1219 1.4839326,0.187012 2.2324219,0.195312 0.3399996,0.0102 0.6814847,0.01393 1.0214843,0.01563 h 1.2187498 13.939453 c 0.34,0 0.679532,-3.25e-4 1.019532,-0.01563 0.748499,-0.0081 1.495875,-0.07331 2.234375,-0.195312 0.738699,-0.1262 1.454147,-0.363072 2.123046,-0.701172 1.343099,-0.685799 2.435295,-1.777995 3.121094,-3.121094 0.3381,-0.668899 0.574972,-1.384347 0.701172,-2.123047 0.1219,-0.738499 0.187013,-1.485875 0.195313,-2.234375 0.0102,-0.339999 0.01393,-0.679531 0.01563,-1.019531 V 23.361328 10.632812 H 34 V 9.414062 C 34,9.074063 33.999675,8.734531 33.98437,8.394531 33.97477,7.646632 33.9088,6.9001386 33.787104,6.1621094 33.661505,5.4229001 33.425485,4.7066287 33.087886,4.0371094 32.402586,2.6912307 31.310337,1.5981487 29.964839,0.9121094 29.296244,0.5752997 28.579696,0.3393105 27.841797,0.2128906 27.103198,0.0912907 26.357874,0.025305 25.609375,0.015625 25.269375,0.005425 24.92789,0.0017 24.587891,0 Z M 24.035156,5.1933594 c 0.5474,-0.0476 0.853769,0.3111787 0.855469,0.8925781 V 22.130859 c 0.0139,0.4199 -0.0185,0.839054 -0.0957,1.251953 -0.0834,0.4185 -0.251141,0.815216 -0.494141,1.166016 -0.2442,0.3505 -0.561188,0.645128 -0.929687,0.861328 -0.3662,0.2089 -0.764988,0.353888 -1.179688,0.429688 -0.783699,0.1564 -1.314219,0.193797 -1.824218,0.0918 -0.4586,-0.0915 -0.882363,-0.306448 -1.226563,-0.623047 -0.531599,-0.4795 -0.847647,-1.155595 -0.873047,-1.871094 -0.0253,-0.715499 0.241882,-1.409882 0.738281,-1.925781 0.3099,-0.3162 0.687216,-0.558585 1.103516,-0.708985 0.608999,-0.209799 1.233641,-0.367956 1.869141,-0.472656 l 0.662109,-0.134766 c 0.2836,-0.0291 0.546428,-0.1624 0.736328,-0.375 0.2057,-0.253299 0.205078,-0.553809 0.205078,-0.849609 v -7.480469 c 0,-0.572899 -0.258988,-0.728446 -0.804687,-0.623046 -0.3927,0.0697 -8.791016,1.769531 -8.791016,1.769531 -0.470899,0.1071 -0.642578,0.26141 -0.642578,0.849609 v 10.966797 c 0.0082,0.4199 -0.02853,0.8383 -0.111328,1.25 -0.0831,0.4186 -0.250941,0.815416 -0.494141,1.166016 -0.2441,0.351099 -0.561088,0.646481 -0.929687,0.863281 -0.3665,0.2106 -0.766041,0.358147 -1.181641,0.435547 -0.7836591,0.1581 -1.312266,0.193797 -1.8222655,0.0918 C 8.345338,28.167466 7.9194015,27.949859 7.5761719,27.630859 6.493623,26.61846 6.4331173,24.920483 7.4414062,23.833984 7.7504859,23.516885 8.1280423,23.2744 8.5449219,23.125 9.1537013,22.9143 9.7804163,22.755291 10.416016,22.650391 l 0.658203,-0.132813 c 0.284399,-0.0296 0.547881,-0.163753 0.738281,-0.376953 0.172,-0.2393 0.251909,-0.532672 0.224609,-0.826172 V 8.666016 c -7e-4,-0.1137 0.0061,-0.227144 0.02149,-0.339844 0.0286,-0.2531 0.149544,-0.48685 0.339844,-0.65625 0.183299,-0.1454 0.400359,-0.24155 0.630859,-0.28125 L 23.134766,5.3476562 c 0.0884,-0.0187 0.81879,-0.1542968 0.90039,-0.1542968 z"
     style="fill:#ffffff" />
  <defs
     id="defs13">
    <linearGradient
       id="paint0_linear"
       x1="17"
       y1="36.8657"
       x2="17"
       y2="3.7309999"
       gradientUnits="userSpaceOnUse">
      <stop
         stop-color="#FA233B"
         id="stop12" />
      <stop
         offset="1"
         stop-color="#FB5C74"
         id="stop13" />
    </linearGradient>
  </defs>
</svg>
