<?xml version="1.0" encoding="UTF-8" standalone="no"?>
<!-- Generator: Adobe Illustrator 19.2.0, SVG Export Plug-In . SVG Version: 6.00 Build 0)  -->

<svg
   version="1.1"
   x="0px"
   y="0px"
   viewBox="0 0 125.00306 19.368"
   enable-background="new 0 0 125 40"
   xml:space="preserve"
   id="svg6"
   sodipodi:docname="bandcamp.svg"
   width="125.00306"
   height="19.368"
   inkscape:version="1.3.2 (091e20e, 2023-11-25)"
   xmlns:inkscape="http://www.inkscape.org/namespaces/inkscape"
   xmlns:sodipodi="http://sodipodi.sourceforge.net/DTD/sodipodi-0.dtd"
   xmlns="http://www.w3.org/2000/svg"
   xmlns:svg="http://www.w3.org/2000/svg"><defs
   id="defs6" /><sodipodi:namedview
   id="namedview6"
   pagecolor="#ffffff"
   bordercolor="#000000"
   borderopacity="0.25"
   inkscape:showpageshadow="2"
   inkscape:pageopacity="0.0"
   inkscape:pagecheckerboard="0"
   inkscape:deskcolor="#d1d1d1"
   inkscape:zoom="5.9"
   inkscape:cx="62.542373"
   inkscape:cy="9.6610169"
   inkscape:window-width="1312"
   inkscape:window-height="449"
   inkscape:window-x="0"
   inkscape:window-y="25"
   inkscape:window-maximized="0"
   inkscape:current-layer="svg6" />
<g
   id="bg"
   display="none"
   transform="translate(0.001,-10.316)">
	<rect
   display="inline"
   fill="#ffffff"
   width="125"
   height="40"
   id="rect1"
   x="0"
   y="0" />
</g>
<g
   id="icons"
   style="fill:#ffffff"
   transform="translate(0.001,-10.316)">
	<g
   id="g6"
   style="fill:#ffffff">
		<path
   fill-rule="evenodd"
   clip-rule="evenodd"
   fill="#333333"
   d="m 70.903,10.316 c 0.154,0.235 0.116,0.501 0.116,0.757 0.002,4.567 0.002,9.134 -0.001,13.7 0,0.233 0.045,0.477 -0.12,0.76 -0.687,0.084 -1.411,0.043 -2.135,0.023 -0.239,-0.374 -0.027,-0.79 -0.177,-1.156 -2.072,2.006 -5.204,2.012 -7.061,0.028 -0.652,-0.697 -1.048,-1.537 -1.26,-2.454 -0.3,-1.305 -0.312,-2.626 -0.004,-3.927 1.06,-4.473 6.043,-4.71 8.216,-2.26 0.103,-1.869 -0.051,-3.674 0.085,-5.471 0.781,0 1.562,0 2.341,0 z m -2.357,9.697 c 0.049,-0.761 -0.088,-1.504 -0.436,-2.189 -0.511,-1.01 -1.33,-1.541 -2.493,-1.546 -1.152,-0.005 -2.019,0.457 -2.519,1.493 -0.681,1.412 -0.727,2.874 -0.15,4.334 0.45,1.136 1.323,1.763 2.54,1.788 1.216,0.027 2.1,-0.564 2.625,-1.669 0.331,-0.696 0.483,-1.428 0.433,-2.211 z"
   id="path1"
   style="fill:#ffffff" />
		<path
   fill-rule="evenodd"
   clip-rule="evenodd"
   fill="#333333"
   d="m 114.054,29.684 c -0.018,-0.216 -0.051,-0.431 -0.051,-0.646 -0.003,-4.592 -0.003,-9.185 0,-13.777 0,-0.191 0.016,-0.384 0.029,-0.663 0.758,-0.08 1.499,-0.052 2.208,-0.019 0.249,0.359 0.051,0.735 0.197,1.051 0.047,-0.003 0.104,0.011 0.125,-0.011 2.347,-2.302 6.219,-1.703 7.657,1.258 1.074,2.212 1.045,4.508 -0.098,6.691 -1.372,2.622 -5.074,3.167 -7.239,1.136 -0.077,-0.072 -0.156,-0.143 -0.243,-0.224 -0.191,0.139 -0.122,0.325 -0.123,0.48 -0.007,1.321 -0.002,2.642 -0.006,3.965 0,0.256 0.038,0.522 -0.115,0.758 -0.781,0.001 -1.561,0.001 -2.341,0.001 z m 8.341,-9.497 c 0.02,-1.011 -0.193,-1.892 -0.705,-2.709 -1.067,-1.705 -3.949,-1.631 -4.809,0.324 -0.688,1.564 -0.693,3.154 0.124,4.683 0.514,0.959 1.389,1.419 2.458,1.41 1.127,-0.01 1.984,-0.529 2.486,-1.568 0.337,-0.696 0.457,-1.437 0.446,-2.14 z"
   id="path2"
   style="fill:#ffffff" />
		<path
   fill-rule="evenodd"
   clip-rule="evenodd"
   fill="#333333"
   d="m 105.03,25.533 c -0.75,0.084 -1.521,0.039 -2.259,0.03 -0.243,-0.26 -0.161,-0.532 -0.162,-0.781 -0.007,-1.992 -0.004,-3.985 -0.004,-5.977 0,-0.174 0.002,-0.347 -0.001,-0.52 -0.019,-1.035 -0.37,-1.672 -1.051,-1.911 -0.92,-0.325 -1.976,-0.009 -2.569,0.768 -0.455,0.596 -0.6,1.286 -0.601,2.017 -0.004,1.861 0.001,3.726 -0.004,5.589 -0.001,0.255 0.046,0.519 -0.065,0.765 -0.181,0.165 -0.404,0.149 -0.618,0.15 -1.343,0.011 -2.68,0.118 -4.018,0.236 -0.98,0.088 -1.805,-0.154 -2.244,-1.199 -0.927,0.696 -1.936,1.041 -3.026,1.174 -0.926,0.113 -1.817,0.005 -2.667,-0.371 -1.231,-0.545 -1.891,-1.635 -1.851,-3.011 0.04,-1.388 0.697,-2.33 1.997,-2.825 1.125,-0.431 2.326,-0.478 3.5,-0.653 0.429,-0.064 0.856,-0.121 1.267,-0.266 0.428,-0.148 0.693,-0.442 0.747,-0.894 0.058,-0.485 -0.098,-0.898 -0.508,-1.189 -0.776,-0.555 -2.65,-0.513 -3.41,0.059 -0.406,0.306 -0.56,0.753 -0.728,1.244 -0.798,0.047 -1.585,0.049 -2.366,0 -0.114,-1.277 0.615,-2.54 1.884,-3.106 1.862,-0.83 3.784,-0.884 5.676,-0.102 1.239,0.514 1.856,1.492 1.844,2.86 -0.015,1.755 -0.006,3.509 -0.001,5.265 0,0.276 -0.056,0.567 0.178,0.896 0.556,0.237 1.18,0.144 1.887,0.042 0,-3.085 0,-6.128 0,-9.218 0.82,-0.079 1.562,-0.067 2.308,-0.015 0.163,0.438 0.019,0.856 0.127,1.262 2.458,-2.209 4.755,-2.19 6.446,0.031 0.102,0.01 0.145,-0.071 0.197,-0.133 1.231,-1.465 2.819,-1.758 4.587,-1.354 1.4,0.32 2.277,1.322 2.313,2.846 0.066,2.705 0.016,5.414 0.012,8.121 0,0.038 -0.032,0.077 -0.071,0.164 -0.744,0.107 -1.513,0.031 -2.246,0.042 -0.244,-0.266 -0.163,-0.538 -0.164,-0.787 -0.007,-1.95 -0.004,-3.899 -0.004,-5.849 0.001,-0.499 -0.011,-0.996 -0.142,-1.482 -0.194,-0.717 -0.638,-1.088 -1.387,-1.153 -1.759,-0.156 -2.67,0.724 -2.691,2.649 -0.021,1.928 -0.003,3.856 -0.008,5.783 0.001,0.251 0.059,0.517 -0.104,0.803 z M 91.257,20.199 c -0.953,0.389 -1.906,0.411 -2.839,0.558 -0.447,0.07 -0.89,0.175 -1.284,0.42 -0.534,0.331 -0.743,0.836 -0.703,1.434 0.038,0.566 0.431,0.876 0.925,1.057 0.984,0.359 1.951,0.297 2.878,-0.19 0.521,-0.274 0.891,-0.688 0.992,-1.286 0.108,-0.639 0.063,-1.279 0.031,-1.993 z"
   id="path3"
   style="fill:#ffffff" />
		<path
   fill-rule="evenodd"
   clip-rule="evenodd"
   fill="#333333"
   d="m 39.732,17.947 c -0.839,0 -1.628,0 -2.456,0 0.053,-1.456 0.692,-2.517 1.958,-3.088 1.857,-0.838 3.784,-0.885 5.672,-0.097 1.235,0.517 1.85,1.502 1.838,2.868 -0.016,1.755 -0.006,3.508 -10e-4,5.262 0,0.276 -0.058,0.568 0.186,0.895 0.554,0.22 1.177,0.145 1.882,0.029 0,-3.087 0,-6.13 0,-9.225 0.822,-0.066 1.563,-0.042 2.286,-0.017 0.192,0.461 0.029,0.884 0.146,1.295 0.214,0.005 0.28,-0.182 0.382,-0.297 1.432,-1.624 3.772,-1.635 5.3,-0.783 1.111,0.619 1.59,1.669 1.615,2.868 0.053,2.553 0.013,5.108 0.009,7.662 0,0.042 -0.025,0.081 -0.073,0.223 -0.747,0.074 -1.532,0.021 -2.286,0.022 -0.227,-0.27 -0.152,-0.542 -0.153,-0.791 -0.007,-1.884 -0.003,-3.768 -0.003,-5.652 0,-0.15 0.002,-0.303 -10e-4,-0.454 -0.031,-1.479 -0.593,-2.27 -1.687,-2.371 -1.49,-0.139 -2.606,0.623 -2.908,1.992 -0.08,0.358 -0.111,0.725 -0.11,1.096 0.007,1.818 0.006,3.637 10e-4,5.457 -10e-4,0.232 0.051,0.476 -0.082,0.697 -0.233,0.161 -0.499,0.121 -0.755,0.125 -1.256,0.022 -2.507,0.113 -3.757,0.227 -0.992,0.091 -1.871,-0.069 -2.308,-1.109 -0.271,-0.026 -0.404,0.181 -0.585,0.281 -1.505,0.838 -3.088,1.113 -4.752,0.593 -1.477,-0.463 -2.273,-1.605 -2.249,-3.123 0.025,-1.514 0.813,-2.543 2.322,-2.987 1.042,-0.307 2.125,-0.387 3.196,-0.536 0.407,-0.059 0.813,-0.114 1.205,-0.247 0.45,-0.153 0.745,-0.447 0.791,-0.93 0.048,-0.515 -0.116,-0.984 -0.589,-1.209 -1.074,-0.512 -2.178,-0.524 -3.241,0.041 -0.488,0.259 -0.681,0.764 -0.793,1.283 z m 4.46,2.278 c -0.956,0.349 -1.927,0.398 -2.882,0.542 -0.404,0.061 -0.803,0.164 -1.166,0.373 -0.565,0.327 -0.817,0.839 -0.772,1.462 0.042,0.585 0.456,0.901 0.981,1.084 0.969,0.334 1.913,0.266 2.82,-0.202 0.574,-0.295 0.942,-0.765 1.021,-1.412 0.073,-0.596 0.066,-1.198 -0.002,-1.847 z"
   id="path4"
   style="fill:#ffffff" />
		<path
   fill-rule="evenodd"
   clip-rule="evenodd"
   fill="#333333"
   d="m 80.581,21.403 c 0.828,-0.033 1.598,-0.049 2.458,0.01 -0.272,1.713 -0.924,3.089 -2.452,3.895 -3.696,1.95 -7.819,-0.482 -8.003,-4.707 -0.035,-0.806 0.043,-1.6 0.242,-2.382 0.742,-2.914 3.043,-4.15 5.747,-3.96 0.67,0.047 1.327,0.182 1.95,0.454 1.303,0.568 2.121,1.534 2.433,2.923 0.042,0.188 0.093,0.378 -0.027,0.627 -0.742,0.072 -1.514,0.028 -2.207,0.024 -0.22,-0.094 -0.229,-0.237 -0.266,-0.355 -0.289,-0.946 -0.92,-1.506 -1.9,-1.624 -1.154,-0.139 -2.216,0.103 -2.805,1.19 -0.906,1.668 -0.911,3.408 -0.038,5.099 0.494,0.957 1.379,1.358 2.438,1.284 1.141,-0.08 1.856,-0.737 2.219,-1.803 0.068,-0.204 0.128,-0.411 0.211,-0.675 z"
   id="path5"
   style="fill:#ffffff" />
		<path
   fill-rule="evenodd"
   clip-rule="evenodd"
   fill="#333333"
   d="m 35.336,17.12 c -1.303,-3.166 -5.612,-3.794 -7.606,-1.551 -0.043,0.048 -0.096,0.087 -0.238,0.018 0,-1.733 0,-3.501 0,-5.271 -0.823,0 -1.646,0 -2.469,0 v 15.231 c 0.818,0.035 1.552,0.073 2.253,-0.019 0.185,-0.393 0.015,-0.772 0.159,-1.133 1.014,1.084 1.831,1.44 3.429,1.52 1.983,0.099 3.633,-0.864 4.424,-2.678 0.879,-2.019 0.888,-4.074 0.048,-6.117 z m -2.381,5.145 c -0.454,1.055 -1.314,1.6 -2.445,1.628 -1.094,0.027 -1.997,-0.425 -2.517,-1.414 -0.841,-1.6 -0.829,-3.243 -0.027,-4.851 0.456,-0.912 1.308,-1.339 2.363,-1.343 1.16,-0.037 1.966,0.477 2.478,1.425 0.8,1.483 0.806,3.021 0.148,4.555 z"
   id="path6"
   style="fill:#ffffff" />
		<polygon
   fill="#619AA9"
   points="7.007,10.367 25.023,10.367 18.015,25.529 -0.001,25.529 "
   id="polygon6"
   style="fill:#ffffff" />
	</g>
</g>
</svg>
