<?xml version="1.0" encoding="UTF-8" standalone="no"?>
<!-- Generator: Adobe Illustrator 27.2.0, SVG Export Plug-In . SVG Version: 6.00 Build 0)  -->

<svg
   version="1.1"
   id="Layer_2"
   x="0px"
   y="0px"
   viewBox="0 0 125.00017 34.582397"
   xml:space="preserve"
   sodipodi:docname="deezer.svg"
   width="125.00017"
   height="34.582397"
   inkscape:version="1.3.2 (091e20e, 2023-11-25)"
   xmlns:inkscape="http://www.inkscape.org/namespaces/inkscape"
   xmlns:sodipodi="http://sodipodi.sourceforge.net/DTD/sodipodi-0.dtd"
   xmlns="http://www.w3.org/2000/svg"
   xmlns:svg="http://www.w3.org/2000/svg"><defs
   id="defs7" /><sodipodi:namedview
   id="namedview7"
   pagecolor="#ffffff"
   bordercolor="#000000"
   borderopacity="0.25"
   inkscape:showpageshadow="2"
   inkscape:pageopacity="0.0"
   inkscape:pagecheckerboard="0"
   inkscape:deskcolor="#d1d1d1"
   inkscape:zoom="5.9"
   inkscape:cx="62.542373"
   inkscape:cy="17.288136"
   inkscape:window-width="1312"
   inkscape:window-height="449"
   inkscape:window-x="0"
   inkscape:window-y="25"
   inkscape:window-maximized="0"
   inkscape:current-layer="Layer_2" />
<style
   type="text/css"
   id="style1">
	.st0{fill:#A238FF;}
	.st1{fill:none;}
</style>
<g
   id="g7"
   style="fill:#ffffff"
   transform="translate(0,-2.7087998)">
	<ellipse
   class="st0"
   cx="0.99626982"
   cy="13.123712"
   rx="0.99626982"
   ry="4.0336685"
   id="ellipse1"
   style="fill:#ffffff" />
	<g
   id="g3"
   style="fill:#ffffff">
		<g
   id="g2"
   style="fill:#ffffff">
			<ellipse
   class="st0"
   cx="34.022335"
   cy="13.123712"
   rx="0.99626982"
   ry="4.0336685"
   id="ellipse2"
   style="fill:#ffffff" />
			<path
   class="st0"
   d="m 30.698208,4.9636388 c -0.525334,0 -0.996941,1.1702123 -1.320925,3.0265512 -0.526495,-3.1996841 -1.379436,-5.2813902 -2.34277,-5.2813902 -1.166204,0 -2.170732,3.049866 -2.629713,7.4428322 -0.442892,-3.2409861 -1.128677,-5.3238957 -1.899143,-5.3238957 -1.091883,0 -2.014406,4.1790009 -2.314926,9.9174747 -0.640169,-3.126842 -1.617205,-5.1266813 -2.712477,-5.1266813 -1.067577,0 -2.022642,1.9007623 -2.66312,4.8924173 -0.313126,-5.6174577 -1.225238,-9.6832107 -2.302192,-9.6832107 -0.770466,0 -1.456252,2.0829096 -1.899143,5.3238957 C 10.154819,5.7586655 9.1502906,2.7087998 7.9840852,2.7087998 7.0207521,2.7087998 6.167811,4.7905056 5.6413161,7.99019 5.317332,6.133851 4.8457243,4.9636388 4.3203909,4.9636388 c -0.9769726,0 -1.7689738,4.0432801 -1.7689738,9.0309262 0,4.987635 0.7920012,9.030915 1.7689738,9.030915 0.4012375,0 0.7711267,-0.682951 1.0679073,-1.832235 0.4733658,4.223114 1.4576373,7.127744 2.595787,7.127744 0.9111948,0 1.7236443,-1.86252 2.2545078,-4.771709 0.336952,5.37046 1.227955,9.208151 2.274349,9.208151 0.674576,0 1.284377,-1.596235 1.723037,-4.168421 0.514647,5.098616 1.771872,8.702188 3.242275,8.702188 1.492918,0 2.766341,-3.714149 3.265633,-8.936803 0.441122,2.708875 1.067001,4.403036 1.76177,4.403036 1.046394,0 1.937397,-3.837691 2.274349,-9.208151 0.530863,2.909189 1.343314,4.771709 2.254507,4.771709 1.13815,0 2.122422,-2.90463 2.595787,-7.127744 0.296782,1.149284 0.66667,1.832235 1.067908,1.832235 0.976972,0 1.768974,-4.04328 1.768974,-9.030915 0,-4.9876461 -0.792002,-9.0309262 -1.768974,-9.0309262 z"
   id="path2"
   style="fill:#ffffff" />
		</g>
	</g>
	<g
   id="g6"
   style="fill:#ffffff">
		<path
   d="m 51.840092,11.222234 h -7.301644 v 13.863852 h 7.301644 c 3.828388,0 6.931919,-3.103527 6.931919,-6.931915 v -2.1e-5 c 0,-3.828388 -3.103531,-6.931916 -6.931919,-6.931916 z m 1.41719,7.549004 c 0,1.428772 -0.626274,2.587017 -2.055046,2.587017 h -1.303097 v -6.377374 h 1.303097 c 1.428772,0 2.055046,1.158245 2.055046,2.587017 z"
   id="path3"
   style="fill:#ffffff" />
		<polygon
   points="70.982468,21.358255 64.985077,21.358255 64.985077,19.624905 70.623276,19.624905 70.623276,16.588751 64.985077,16.588751 64.985077,14.980881 70.982468,14.980881 70.982468,11.222234 59.624386,11.222234 59.624386,25.086086 70.982468,25.086086 "
   id="polygon3"
   style="fill:#ffffff" />
		<polygon
   points="83.644562,21.358255 77.647163,21.358255 77.647163,19.624905 83.28537,19.624905 83.28537,16.588751 77.647163,16.588751 77.647163,14.980881 83.644562,14.980881 83.644562,11.222234 72.286476,11.222234 72.286476,25.086086 83.644562,25.086086 "
   id="polygon4"
   style="fill:#ffffff" />
		<polygon
   points="109.57534,21.358255 103.57795,21.358255 103.57795,19.624905 109.21615,19.624905 109.21615,16.588751 103.57795,16.588751 103.57795,14.980881 109.57534,14.980881 109.57534,11.222234 98.217255,11.222234 98.217255,25.086086 109.57534,25.086086 "
   id="polygon5"
   style="fill:#ffffff" />
		<path
   d="m 85.010643,14.970609 h 5.607163 c 0,0 -3.430024,2.670077 -5.709862,6.34657 v 3.768907 h 12.220733 v -3.727831 h -6.110366 c 0,0 1.776634,-2.834387 6.110366,-6.428724 V 11.222234 H 85.010643 Z"
   id="path5"
   style="fill:#ffffff" />
		<path
   d="m 121.63177,18.154159 c 0.82155,-0.267007 2.7933,-0.636705 2.7933,-3.388938 0,-2.752234 -3.43001,-3.542987 -5.60716,-3.542987 -2.17714,0 -7.92807,0 -7.92807,0 v 13.863852 h 5.41717 v -5.83283 c 1.93832,3.345815 2.63414,5.83283 2.63414,5.83283 h 6.05902 c -1.02696,-2.988436 -3.3684,-6.931927 -3.3684,-6.931927 z m -2.18228,-1.887027 c 0,0.650837 -0.5276,1.178428 -1.17843,1.178428 h -1.96405 v -2.464679 h 1.96405 c 0.65083,0 1.17843,0.527603 1.17843,1.178426 z"
   id="path6"
   style="fill:#ffffff" />
	</g>
</g>
<rect
   class="st1"
   width="125.00017"
   height="40"
   id="rect7"
   x="0"
   y="-2.7087998" />
</svg>
