<?xml version="1.0" encoding="UTF-8" standalone="no"?>
<!-- Generator: Adobe Illustrator 19.2.0, SVG Export Plug-In . SVG Version: 6.00 Build 0)  -->

<svg
   version="1.1"
   x="0px"
   y="0px"
   viewBox="0 0 125.122 37.469002"
   enable-background="new 0 0 125 40"
   xml:space="preserve"
   id="svg12"
   sodipodi:docname="spotify.svg"
   width="125.122"
   height="37.469002"
   inkscape:version="1.3.2 (091e20e, 2023-11-25)"
   xmlns:inkscape="http://www.inkscape.org/namespaces/inkscape"
   xmlns:sodipodi="http://sodipodi.sourceforge.net/DTD/sodipodi-0.dtd"
   xmlns="http://www.w3.org/2000/svg"
   xmlns:svg="http://www.w3.org/2000/svg"><defs
   id="defs12" /><sodipodi:namedview
   id="namedview12"
   pagecolor="#ffffff"
   bordercolor="#000000"
   borderopacity="0.25"
   inkscape:showpageshadow="2"
   inkscape:pageopacity="0.0"
   inkscape:pagecheckerboard="0"
   inkscape:deskcolor="#d1d1d1"
   inkscape:zoom="5.9"
   inkscape:cx="62.542373"
   inkscape:cy="18.813559"
   inkscape:window-width="1312"
   inkscape:window-height="449"
   inkscape:window-x="0"
   inkscape:window-y="25"
   inkscape:window-maximized="0"
   inkscape:current-layer="svg12" />
<g
   id="bg"
   display="none"
   transform="translate(0.061,-1.2659999)">
	<rect
   display="inline"
   fill="none"
   width="125"
   height="40"
   id="rect1"
   x="0"
   y="0" />
</g>
<g
   id="icons"
   transform="translate(0.061,-1.2659999)">
	<g
   id="g12">
		<g
   id="g4">
			<path
   fill="none"
   d="m 27.336,28.285 v 0 c 0.338,-0.549 0.162,-1.267 -0.387,-1.605 -4.938,-3.018 -11.06,-3.72 -18.197,-2.088 -0.629,0.143 -1.021,0.769 -0.879,1.398 0.144,0.628 0.771,1.023 1.399,0.878 6.521,-1.489 12.06,-0.882 16.459,1.807 0.55,0.336 1.269,0.163 1.605,-0.39 z"
   id="path1" />
			<path
   fill="none"
   d="M 32.227,17.26 C 32.72,16.429 32.446,15.353 31.615,14.859 24.663,10.732 13.66,10.343 7.043,12.353 c -0.926,0.281 -1.447,1.26 -1.168,2.186 0.28,0.926 1.26,1.448 2.185,1.168 5.767,-1.75 15.727,-1.42 21.767,2.166 0.83,0.494 1.908,0.22 2.4,-0.613 z"
   id="path2" />
			<path
   fill="none"
   d="M 29.156,21.178 C 23.372,17.624 14.91,16.624 8.107,18.689 7.335,18.924 6.899,19.738 7.13,20.511 c 0.234,0.77 1.05,1.206 1.822,0.973 5.956,-1.808 13.642,-0.911 18.676,2.183 0.687,0.422 1.435,0.207 2.016,-0.481 v 0.001 c 0.581,-0.688 0.199,-1.587 -0.488,-2.009 z"
   id="path3" />
			<path
   fill="#ffffff"
   d="m 18.604,1.266 v 0 C 8.145,1.265 -0.061,9.653 -0.061,19.999 c 0,10.348 8.423,18.736 18.77,18.736 10.348,0 18.682,-8.387 18.682,-18.736 C 37.391,9.654 29.063,1.266 18.604,1.266 Z M 9.272,26.868 C 8.644,27.013 8.017,26.619 7.873,25.99 c -0.142,-0.628 0.25,-1.255 0.879,-1.398 7.137,-1.632 13.258,-0.93 18.197,2.088 0.55,0.338 0.726,1.056 0.387,1.606 l 0.001,-0.001 c -0.336,0.552 -1.056,0.725 -1.605,0.389 -4.4,-2.689 -9.939,-3.295 -16.46,-1.806 z m 20.372,-3.682 v 0 c -0.581,0.687 -1.33,0.902 -2.017,0.48 C 22.593,20.572 14.911,19.675 8.955,21.483 8.183,21.716 7.364,21.281 7.13,20.51 6.898,19.737 7.332,18.923 8.104,18.688 c 6.804,-2.064 15.269,-1.065 21.053,2.489 0.686,0.423 1.068,1.322 0.487,2.009 z m 0.183,-5.313 c -6.039,-3.586 -16,-3.916 -21.767,-2.166 -0.925,0.28 -1.905,-0.242 -2.185,-1.168 -0.28,-0.926 0.242,-1.905 1.168,-2.186 6.617,-2.01 17.62,-1.621 24.572,2.506 0.832,0.494 1.105,1.57 0.612,2.401 -0.492,0.833 -1.57,1.107 -2.4,0.613 z"
   id="path4" />
		</g>
		<path
   fill="#ffffff"
   d="m 51.101,18.561 c -3.233,-0.772 -3.81,-1.313 -3.81,-2.451 0,-1.075 1.013,-1.798 2.518,-1.798 1.458,0 2.904,0.55 4.421,1.68 0.046,0.034 0.104,0.048 0.16,0.039 0.057,-0.009 0.105,-0.04 0.14,-0.087 l 1.579,-2.226 c 0.064,-0.092 0.048,-0.219 -0.04,-0.288 -1.805,-1.448 -3.837,-2.153 -6.212,-2.153 -3.493,0 -5.933,2.097 -5.933,5.095 0,3.216 2.105,4.355 5.742,5.234 3.096,0.713 3.617,1.311 3.617,2.378 0,1.183 -1.057,1.919 -2.756,1.919 -1.889,0 -3.428,-0.636 -5.15,-2.128 -0.043,-0.037 -0.101,-0.054 -0.156,-0.051 -0.056,0.005 -0.109,0.031 -0.145,0.075 l -1.77,2.108 c -0.074,0.087 -0.064,0.218 0.02,0.293 2.005,1.79 4.47,2.735 7.13,2.735 3.764,0 6.196,-2.057 6.196,-5.239 0.006,-2.687 -1.602,-4.175 -5.541,-5.133 z"
   id="path5" />
		<path
   fill="#ffffff"
   d="m 65.165,15.37 c -1.632,0 -2.97,0.642 -4.072,1.96 v -1.482 c 0,-0.117 -0.096,-0.212 -0.213,-0.212 h -2.896 c -0.117,0 -0.211,0.095 -0.211,0.212 v 16.466 c 0,0.117 0.094,0.212 0.211,0.212 h 2.896 c 0.117,0 0.213,-0.096 0.213,-0.212 v -5.197 c 1.103,1.238 2.442,1.843 4.072,1.843 3.031,0 6.1,-2.334 6.1,-6.794 C 71.27,17.705 68.2,15.37 65.168,15.37 Z m 2.731,6.796 c 0,2.271 -1.4,3.857 -3.404,3.857 -1.98,0 -3.473,-1.658 -3.473,-3.857 0,-2.199 1.493,-3.856 3.473,-3.856 1.973,-10e-4 3.404,1.621 3.404,3.856 z"
   id="path6" />
		<path
   fill="#ffffff"
   d="m 79.129,15.37 c -3.904,0 -6.962,3.006 -6.962,6.844 0,3.796 3.037,6.771 6.915,6.771 3.917,0 6.985,-2.996 6.985,-6.819 0,-3.811 -3.047,-6.795 -6.937,-6.795 V 15.37 Z m 0,10.674 c -2.076,0 -3.642,-1.668 -3.642,-3.88 0,-2.222 1.512,-3.833 3.594,-3.833 2.09,0 3.666,1.668 3.666,3.882 0,2.221 -1.521,3.831 -3.618,3.831 z"
   id="path7" />
		<path
   fill="#ffffff"
   d="m 94.403,15.635 h -3.188 v -3.259 c 0,-0.117 -0.095,-0.212 -0.211,-0.212 h -2.896 c -0.118,0 -0.213,0.095 -0.213,0.212 v 3.259 h -1.392 c -0.117,0 -0.211,0.095 -0.211,0.212 v 2.489 c 0,0.117 0.094,0.212 0.211,0.212 h 1.392 v 6.442 c 0,2.603 1.296,3.922 3.851,3.922 1.039,0 1.9,-0.215 2.713,-0.675 0.066,-0.037 0.107,-0.108 0.107,-0.184 v -2.37 c 0,-0.073 -0.037,-0.143 -0.1,-0.181 -0.063,-0.04 -0.143,-0.042 -0.207,-0.01 -0.557,0.281 -1.097,0.41 -1.7,0.41 -0.93,0 -1.344,-0.422 -1.344,-1.367 V 18.55 h 3.188 c 0.116,0 0.211,-0.095 0.211,-0.212 v -2.489 c 0.005,-0.118 -0.089,-0.213 -0.208,-0.213 z"
   id="path8" />
		<path
   fill="#ffffff"
   d="m 105.507,15.648 v -0.4 c 0,-1.177 0.452,-1.702 1.465,-1.702 0.604,0 1.089,0.12 1.632,0.3 0.067,0.021 0.137,0.011 0.191,-0.029 0.056,-0.04 0.087,-0.104 0.087,-0.172 v -2.44 c 0,-0.094 -0.061,-0.176 -0.15,-0.204 -0.573,-0.17 -1.308,-0.346 -2.407,-0.346 -2.675,0 -4.089,1.506 -4.089,4.355 v 0.613 h -1.392 c -0.116,0 -0.212,0.096 -0.212,0.213 v 2.502 c 0,0.117 0.096,0.212 0.212,0.212 h 1.392 v 9.936 c 0,0.117 0.094,0.212 0.211,0.212 h 2.896 c 0.117,0 0.213,-0.095 0.213,-0.212 V 18.55 h 2.704 l 4.143,9.933 c -0.471,1.044 -0.932,1.251 -1.563,1.251 -0.511,0 -1.049,-0.152 -1.598,-0.452 -0.053,-0.029 -0.113,-0.034 -0.169,-0.016 -0.056,0.019 -0.102,0.06 -0.125,0.114 l -0.982,2.153 c -0.047,0.102 -0.008,0.221 0.091,0.274 1.024,0.555 1.95,0.792 3.094,0.792 2.138,0 3.319,-0.996 4.362,-3.676 l 5.025,-12.984 c 0.024,-0.066 0.018,-0.139 -0.023,-0.197 -0.04,-0.058 -0.104,-0.092 -0.173,-0.092 h -3.017 c -0.09,0 -0.17,0.057 -0.2,0.142 l -3.089,8.822 -3.383,-8.829 c -0.031,-0.082 -0.112,-0.136 -0.198,-0.136 h -4.949 v -10e-4 z"
   id="path9" />
		<path
   fill="#ffffff"
   d="m 99.07,15.635 h -2.896 c -0.117,0 -0.213,0.095 -0.213,0.212 v 12.637 c 0,0.117 0.096,0.212 0.213,0.212 h 2.896 c 0.116,0 0.212,-0.095 0.212,-0.212 V 15.849 c 0,-0.117 -0.094,-0.213 -0.212,-0.214 z"
   id="path10" />
		<path
   fill="#ffffff"
   d="m 97.637,9.881 c -1.148,0 -2.078,0.929 -2.078,2.077 0,1.148 0.931,2.078 2.078,2.078 1.147,0 2.077,-0.93 2.077,-2.078 0,-1.148 -0.929,-2.077 -2.077,-2.077 z"
   id="path11" />
		<path
   fill="#ffffff"
   d="m 123.012,19.698 c -1.147,0 -2.038,-0.921 -2.038,-2.039 0,-1.118 0.904,-2.049 2.049,-2.049 1.147,0 2.038,0.921 2.038,2.038 0,1.118 -0.904,2.05 -2.049,2.05 z m 0.011,-3.885 c -1.045,0 -1.834,0.83 -1.834,1.846 0,1.016 0.783,1.835 1.823,1.835 1.043,0 1.835,-0.829 1.835,-1.846 0.001,-1.016 -0.786,-1.835 -1.824,-1.835 z m 0.452,2.045 0.576,0.807 h -0.486 l -0.52,-0.74 h -0.446 v 0.74 h -0.406 v -2.139 h 0.953 c 0.497,0 0.825,0.254 0.825,0.682 10e-4,0.351 -0.202,0.565 -0.495,0.65 z m -0.344,-0.965 h -0.532 v 0.677 h 0.532 c 0.265,0 0.422,-0.13 0.422,-0.339 -10e-4,-0.221 -0.159,-0.338 -0.422,-0.338 z"
   id="path12" />
	</g>
</g>
</svg>
