<?xml version="1.0" encoding="UTF-8" standalone="no"?>
<!-- Generator: Adobe Illustrator 19.2.0, SVG Export Plug-In . SVG Version: 6.00 Build 0)  -->

<svg
   version="1.1"
   x="0px"
   y="0px"
   viewBox="0 0 125.001 16.716999"
   enable-background="new 0 0 125 40"
   xml:space="preserve"
   id="svg8"
   sodipodi:docname="tidal.svg"
   inkscape:version="1.3.2 (091e20e, 2023-11-25)"
   width="125.001"
   height="16.716999"
   xmlns:inkscape="http://www.inkscape.org/namespaces/inkscape"
   xmlns:sodipodi="http://sodipodi.sourceforge.net/DTD/sodipodi-0.dtd"
   xmlns="http://www.w3.org/2000/svg"
   xmlns:svg="http://www.w3.org/2000/svg"><defs
   id="defs8" /><sodipodi:namedview
   id="namedview8"
   pagecolor="#ffffff"
   bordercolor="#000000"
   borderopacity="0.25"
   inkscape:showpageshadow="2"
   inkscape:pageopacity="0.0"
   inkscape:pagecheckerboard="0"
   inkscape:deskcolor="#d1d1d1"
   inkscape:zoom="5.336"
   inkscape:cx="62.406297"
   inkscape:cy="8.4332834"
   inkscape:window-width="1312"
   inkscape:window-height="449"
   inkscape:window-x="0"
   inkscape:window-y="25"
   inkscape:window-maximized="0"
   inkscape:current-layer="svg8" />
<g
   id="bg"
   display="none"
   transform="translate(0,-11.641)">
	<rect
   display="inline"
   fill="#ffffff"
   width="125"
   height="40"
   id="rect1"
   x="0"
   y="0" />
</g>
<g
   id="icons"
   style="fill:#ffffff"
   transform="translate(0,-11.641)">
	<g
   id="g8"
   style="fill:#ffffff">
		<g
   id="g5"
   style="fill:#ffffff">
			<path
   fill-rule="evenodd"
   clip-rule="evenodd"
   d="m 68.682,27.699 c 0.004,-0.086 0.013,-0.172 0.013,-0.258 0,-4.942 0,-9.884 0,-14.824 0,-0.093 0,-0.186 0,-0.292 0.072,-0.008 0.126,-0.018 0.181,-0.018 1.948,10e-4 3.9,-0.017 5.851,0.009 1.453,0.019 2.853,0.323 4.159,0.985 2.056,1.044 3.302,2.704 3.718,4.974 0.253,1.377 0.216,2.749 -0.197,4.093 -0.599,1.962 -1.857,3.382 -3.663,4.323 -0.991,0.516 -2.048,0.813 -3.16,0.928 -0.177,0.018 -0.353,0.052 -0.529,0.079 -2.123,0.001 -4.249,0.001 -6.373,0.001 z m 3.435,-3.051 c 0.068,0.005 0.11,0.01 0.153,0.01 0.722,0 1.444,0.007 2.167,-0.002 0.501,-0.007 0.996,-0.072 1.477,-0.213 1.588,-0.468 2.632,-1.483 3.064,-3.092 0.225,-0.835 0.249,-1.686 0.063,-2.531 -0.294,-1.343 -1.045,-2.347 -2.273,-2.978 -0.706,-0.364 -1.467,-0.526 -2.255,-0.538 -0.745,-0.012 -1.49,-0.003 -2.233,-10e-4 -0.055,0 -0.111,0.011 -0.164,0.016 0.001,3.114 0.001,6.212 0.001,9.329 z"
   id="path1"
   style="fill:#ffffff" />
			<path
   fill-rule="evenodd"
   clip-rule="evenodd"
   d="m 89.752,27.699 c 0.018,-0.068 0.03,-0.141 0.057,-0.205 2.078,-4.999 4.157,-9.998 6.238,-14.997 0.025,-0.059 0.052,-0.117 0.084,-0.181 1.208,0 2.412,0 3.626,0 0.098,0.235 0.193,0.467 0.29,0.702 1.981,4.805 3.96,9.611 5.938,14.417 0.035,0.083 0.048,0.177 0.069,0.265 -1.271,0 -2.542,0 -3.814,0 -0.015,-0.033 -0.033,-0.064 -0.044,-0.099 -0.334,-0.9 -0.665,-1.799 -1.001,-2.698 -0.032,-0.087 -0.068,-0.172 -0.098,-0.252 -2.168,0 -4.318,0 -6.471,0 -0.385,1.024 -0.763,2.037 -1.146,3.049 -1.241,-10e-4 -2.485,-10e-4 -3.728,-10e-4 z m 10.41,-5.803 c -0.761,-1.995 -1.513,-3.963 -2.273,-5.954 -0.192,0.361 -2.263,5.793 -2.269,5.954 1.501,0 2.999,0 4.542,0 z"
   id="path2"
   style="fill:#ffffff" />
			<path
   fill-rule="evenodd"
   clip-rule="evenodd"
   d="m 30.53,12.308 c 2.434,-10e-4 4.87,-10e-4 7.305,-0.002 1.648,0 3.294,0 4.943,0 0.085,0 0.172,0 0.252,0 0.05,0.163 0.068,2.611 0.023,2.986 -1.484,0 -2.968,0 -4.483,0 -0.004,0.103 -0.008,0.186 -0.008,0.269 0,1.077 0,2.154 0,3.23 0,2.868 0,5.737 -10e-4,8.605 0,0.101 -0.007,0.202 -0.011,0.303 -1.158,0 -2.314,0 -3.469,0 -0.002,-0.101 -0.008,-0.202 -0.008,-0.303 0,-3.933 0,-7.866 0,-11.8 0,-0.092 0,-0.183 0,-0.297 -1.532,0 -3.039,0 -4.544,0 0.001,-0.996 0.001,-1.994 0.001,-2.991 z"
   id="path3"
   style="fill:#ffffff" />
			<path
   fill-rule="evenodd"
   clip-rule="evenodd"
   d="m 115.419,27.699 c 0.003,-0.079 0.007,-0.158 0.007,-0.238 0,-4.948 0,-9.897 0,-14.845 0,-0.093 0,-0.186 0,-0.274 0.176,-0.046 3.252,-0.054 3.512,-0.009 0,4.088 0,8.179 0,12.283 0.085,0.005 0.149,0.013 0.211,0.013 1.9,10e-4 3.8,0 5.701,0 0.05,0 0.1,-0.006 0.151,-0.009 0,1.026 0,2.052 0,3.078 -3.195,0.001 -6.389,0.001 -9.582,0.001 z"
   id="path4"
   style="fill:#ffffff" />
			<path
   fill-rule="evenodd"
   clip-rule="evenodd"
   d="m 53.508,27.699 c 0,-5.12 0,-10.24 0,-15.355 0.166,-0.046 3.184,-0.06 3.501,-0.017 0.005,0.051 0.014,0.107 0.014,0.162 10e-4,5.034 10e-4,10.068 10e-4,15.101 0,0.036 -0.003,0.072 -0.004,0.108 -1.17,0.001 -2.341,0.001 -3.512,0.001 z"
   id="path5"
   style="fill:#ffffff" />
		</g>
		<g
   id="g7"
   style="fill:#ffffff">
			<path
   fill-rule="evenodd"
   clip-rule="evenodd"
   d="m 20.956,11.641 c 0.046,0.053 0.09,0.11 0.139,0.16 1.282,1.283 2.566,2.565 3.847,3.846 0.056,0.056 0.121,0.103 0.159,0.134 -1.41,1.409 -2.8,2.801 -4.214,4.213 -1.357,-1.357 -2.748,-2.748 -4.143,-4.142 -1.399,1.399 -2.786,2.787 -4.193,4.194 C 11.145,18.639 9.753,17.249 8.348,15.843 6.951,17.24 5.563,18.628 4.195,19.995 2.794,18.594 1.404,17.203 0,15.799 0.025,15.774 0.076,15.717 0.129,15.661 1.417,14.374 2.703,13.087 3.991,11.8 c 0.051,-0.051 0.095,-0.105 0.144,-0.159 0.013,0 0.027,0 0.043,0 0.021,0.027 0.038,0.059 0.064,0.083 1.33,1.332 2.662,2.663 3.994,3.995 0.033,0.033 0.075,0.062 0.117,0.098 0.05,-0.046 0.094,-0.084 0.134,-0.124 1.3,-1.3 2.602,-2.601 3.902,-3.902 0.043,-0.044 0.075,-0.099 0.114,-0.149 0.014,0 0.029,0 0.042,0 1.393,1.392 2.783,2.785 4.184,4.188 0.067,-0.061 0.119,-0.107 0.169,-0.158 1.306,-1.306 2.615,-2.612 3.92,-3.918 0.034,-0.034 0.065,-0.075 0.096,-0.112 0.013,-10e-4 0.028,-10e-4 0.042,-10e-4 z"
   id="path6"
   style="fill:#ffffff" />
			<path
   fill-rule="evenodd"
   clip-rule="evenodd"
   d="m 8.416,24.216 c 1.362,-1.362 2.755,-2.754 4.133,-4.133 1.37,1.372 2.763,2.765 4.142,4.144 -1.374,1.375 -2.763,2.763 -4.132,4.131 -1.373,-1.375 -2.767,-2.767 -4.143,-4.142 z"
   id="path7"
   style="fill:#ffffff" />
		</g>
	</g>
</g>
</svg>
