<?xml version="1.0" encoding="UTF-8" standalone="no"?>
<svg
   height="193.65916"
   width="868.04205"
   xml:space="preserve"
   y="0"
   x="0"
   id="Layer_1"
   version="1.1"
   viewBox="-57.15 -21.25 358.28435 30.864429"
   sodipodi:docname="youtube.svg"
   inkscape:version="1.3.2 (091e20e, 2023-11-25)"
   xmlns:inkscape="http://www.inkscape.org/namespaces/inkscape"
   xmlns:sodipodi="http://sodipodi.sourceforge.net/DTD/sodipodi-0.dtd"
   xmlns="http://www.w3.org/2000/svg"
   xmlns:svg="http://www.w3.org/2000/svg"><defs
     id="defs1" /><sodipodi:namedview
     id="namedview1"
     pagecolor="#ffffff"
     bordercolor="#000000"
     borderopacity="0.25"
     inkscape:showpageshadow="2"
     inkscape:pageopacity="0.0"
     inkscape:pagecheckerboard="0"
     inkscape:deskcolor="#d1d1d1"
     inkscape:zoom="0.48866527"
     inkscape:cx="380.62864"
     inkscape:cy="-142.22414"
     inkscape:window-width="1312"
     inkscape:window-height="624"
     inkscape:window-x="0"
     inkscape:window-y="25"
     inkscape:window-maximized="0"
     inkscape:current-layer="Layer_1" /><style
     id="style7427"
     type="text/css">.st2{fill:#282828}</style><path
     id="path1"
     d="m -0.068993,-46.514207 c 0,0 -35.734487,6.49e-4 -44.668072,2.351585 -4.795924,1.31653 -8.745576,5.266147 -10.062104,10.156114 -2.350943,8.933583 -2.350831,27.4587105 -2.350831,27.4587105 0,0 -1.12e-4,18.6191635 2.350831,27.4587115 1.316528,4.889962 5.172142,8.745576 10.062104,10.062104 9.027623,2.444982 44.668072,2.445593 44.668072,2.445593 0,0 35.734486,-6.47e-4 44.668074,-2.35159 4.889957,-1.316529 8.745574,-5.172142 10.062104,-10.062104 2.350936,-8.933586 2.350833,-27.4587115 2.350833,-27.4587115 0,0 0.09414,-18.6191305 -2.350833,-27.5527135 -1.31653,-4.889967 -5.172147,-8.745574 -10.062104,-10.062104 -8.933588,-2.444984 -44.668074,-2.445595 -44.668074,-2.445595 z M -11.447139,-23.662396 18.268402,-6.5477975 -11.447139,10.5668 Z"
     style="fill:#ffffff;stroke-width:0.940378" /><g
     id="g7451"
     style="fill:#ffffff"
     transform="matrix(0.9403783,0,0,0.9403783,-57.149767,-46.513878)"><g
       id="g7449"
       style="fill:#ffffff"><path
         id="path7435"
         d="m 176.3,77.4 c -2.4,-1.6 -4.1,-4.1 -5.1,-7.6 -1,-3.4 -1.5,-8 -1.5,-13.6 v -7.7 c 0,-5.7 0.6,-10.3 1.7,-13.8 1.2,-3.5 3,-6 5.4,-7.6 2.5,-1.6 5.7,-2.4 9.7,-2.4 3.9,0 7.1,0.8 9.5,2.4 2.4,1.6 4.1,4.2 5.2,7.6 1.1,3.4 1.7,8 1.7,13.8 v 7.7 c 0,5.7 -0.5,10.2 -1.6,13.7 -1.1,3.4 -2.8,6 -5.2,7.6 -2.4,1.6 -5.7,2.4 -9.8,2.4 -4.2,-0.1 -7.6,-0.9 -10,-2.5 z M 189.8,69 c 0.7,-1.7 1,-4.6 1,-8.5 V 43.9 c 0,-3.8 -0.3,-6.6 -1,-8.4 -0.7,-1.8 -1.8,-2.6 -3.5,-2.6 -1.6,0 -2.8,0.9 -3.4,2.6 -0.7,1.8 -1,4.6 -1,8.4 v 16.6 c 0,3.9 0.3,6.8 1,8.5 0.6,1.7 1.8,2.6 3.5,2.6 1.6,0 2.7,-0.8 3.4,-2.6 z"
         class="st2"
         style="fill:#ffffff" /><path
         id="path7437"
         d="M 360.9,56.3 V 59 c 0,3.4 0.1,6 0.3,7.7 0.2,1.7 0.6,3 1.3,3.7 0.6,0.8 1.6,1.2 3,1.2 1.8,0 3,-0.7 3.7,-2.1 0.7,-1.4 1,-3.7 1.1,-7 l 10.3,0.6 c 0.1,0.5 0.1,1.1 0.1,1.9 0,4.9 -1.3,8.6 -4,11 -2.7,2.4 -6.5,3.6 -11.4,3.6 -5.9,0 -10,-1.9 -12.4,-5.6 -2.4,-3.7 -3.6,-9.4 -3.6,-17.2 v -9.3 c 0,-8 1.2,-13.8 3.7,-17.5 2.5,-3.7 6.7,-5.5 12.6,-5.5 4.1,0 7.3,0.8 9.5,2.3 2.2,1.5 3.7,3.9 4.6,7 0.9,3.2 1.3,7.6 1.3,13.2 v 9.1 h -20.1 z m 1.5,-22.4 c -0.6,0.8 -1,2 -1.2,3.7 -0.2,1.7 -0.3,4.3 -0.3,7.8 v 3.8 h 8.8 v -3.8 c 0,-3.4 -0.1,-6 -0.3,-7.8 -0.2,-1.8 -0.7,-3 -1.3,-3.7 -0.6,-0.7 -1.6,-1.1 -2.8,-1.1 -1.4,-0.1 -2.3,0.3 -2.9,1.1 z"
         class="st2"
         style="fill:#ffffff" /><path
         id="path7439"
         d="M 147.1,55.3 133.5,6 h 11.9 l 4.8,22.3 c 1.2,5.5 2.1,10.2 2.7,14.1 h 0.3 c 0.4,-2.8 1.3,-7.4 2.7,-14 l 5,-22.4 h 11.9 L 159,55.3 V 78.9 H 147.2 V 55.3 Z"
         class="st2"
         style="fill:#ffffff" /><path
         id="path7441"
         d="M 241.6,25.7 V 79 h -9.4 l -1,-6.5 h -0.3 c -2.5,4.9 -6.4,7.4 -11.5,7.4 -3.5,0 -6.1,-1.2 -7.8,-3.5 -1.7,-2.3 -2.5,-5.9 -2.5,-10.9 V 25.7 h 12 v 39.1 c 0,2.4 0.3,4.1 0.8,5.1 0.5,1 1.4,1.5 2.6,1.5 1,0 2,-0.3 3,-1 1,-0.6 1.7,-1.4 2.1,-2.4 V 25.7 Z"
         class="st2"
         style="fill:#ffffff" /><path
         id="path7443"
         d="M 303.1,25.7 V 79 h -9.4 l -1,-6.5 h -0.3 c -2.5,4.9 -6.4,7.4 -11.5,7.4 -3.5,0 -6.1,-1.2 -7.8,-3.5 -1.7,-2.3 -2.5,-5.9 -2.5,-10.9 V 25.7 h 12 v 39.1 c 0,2.4 0.3,4.1 0.8,5.1 0.5,1 1.4,1.5 2.6,1.5 1,0 2,-0.3 3,-1 1,-0.6 1.7,-1.4 2.1,-2.4 V 25.7 Z"
         class="st2"
         style="fill:#ffffff" /><path
         id="path7445"
         d="M 274.2,15.7 H 262.3 V 78.9 H 250.6 V 15.7 H 238.7 V 6 h 35.5 z"
         class="st2"
         style="fill:#ffffff" /><path
         id="path7447"
         d="m 342.8,34.2 c -0.7,-3.4 -1.9,-5.8 -3.5,-7.3 -1.6,-1.5 -3.9,-2.3 -6.7,-2.3 -2.2,0 -4.3,0.6 -6.2,1.9 -1.9,1.2 -3.4,2.9 -4.4,4.9 h -0.1 V 3.3 h -11.6 v 75.6 h 9.9 l 1.2,-5 h 0.3 c 0.9,1.8 2.3,3.2 4.2,4.3 1.9,1 3.9,1.6 6.2,1.6 4.1,0 7,-1.9 8.9,-5.6 1.9,-3.7 2.9,-9.6 2.9,-17.5 v -8.4 c -0.1,-6.1 -0.4,-10.8 -1.1,-14.1 z m -11,21.7 c 0,3.9 -0.2,6.9 -0.5,9.1 -0.3,2.2 -0.9,3.8 -1.6,4.7 -0.8,0.9 -1.8,1.4 -3,1.4 -1,0 -1.9,-0.2 -2.7,-0.7 -0.8,-0.5 -1.5,-1.2 -2,-2.1 V 38.1 c 0.4,-1.4 1.1,-2.6 2.1,-3.6 1,-0.9 2.1,-1.4 3.2,-1.4 1.2,0 2.2,0.5 2.8,1.4 0.7,1 1.1,2.6 1.4,4.8 0.3,2.3 0.4,5.5 0.4,9.6 v 7 z"
         class="st2"
         style="fill:#ffffff" /></g></g></svg>
